<?xml version="1.0" encoding="UTF-8" standalone="no"?>
<!DOCTYPE svg PUBLIC "-//W3C//DTD SVG 1.1//EN"
 "http://www.w3.org/Graphics/SVG/1.1/DTD/svg11.dtd">
<!-- Generated by graphviz version 2.40.1 (20161225.0304)
 -->
<!-- Title: G Pages: 1 -->
<svg width="3580pt" height="539pt"
 viewBox="0.00 0.00 3579.85 539.00" xmlns="http://www.w3.org/2000/svg" xmlns:xlink="http://www.w3.org/1999/xlink">
<g id="graph0" class="graph" transform="scale(1 1) rotate(0) translate(4 535)">
<title>G</title>
<polygon fill="#ffffff" stroke="transparent" points="-4,4 -4,-535 3575.8491,-535 3575.8491,4 -4,4"/>
<!-- 5037070936 -->
<g id="node1" class="node">
<title>5037070936</title>
<polygon fill="none" stroke="#000000" points="0,-486.5 0,-530.5 356.3008,-530.5 356.3008,-486.5 0,-486.5"/>
<text text-anchor="middle" x="87.4917" y="-504.3" font-family="Times,serif" font-size="14.00" fill="#000000">anchor_element: InputLayer</text>
<polyline fill="none" stroke="#000000" points="174.9834,-486.5 174.9834,-530.5 "/>
<text text-anchor="middle" x="202.8179" y="-515.3" font-family="Times,serif" font-size="14.00" fill="#000000">input:</text>
<polyline fill="none" stroke="#000000" points="174.9834,-508.5 230.6523,-508.5 "/>
<text text-anchor="middle" x="202.8179" y="-493.3" font-family="Times,serif" font-size="14.00" fill="#000000">output:</text>
<polyline fill="none" stroke="#000000" points="230.6523,-486.5 230.6523,-530.5 "/>
<text text-anchor="middle" x="293.4766" y="-515.3" font-family="Times,serif" font-size="14.00" fill="#000000">(None, 128, 128, 3)</text>
<polyline fill="none" stroke="#000000" points="230.6523,-508.5 356.3008,-508.5 "/>
<text text-anchor="middle" x="293.4766" y="-493.3" font-family="Times,serif" font-size="14.00" fill="#000000">(None, 128, 128, 3)</text>
</g>
<!-- 5034454152 -->
<g id="node10" class="node">
<title>5034454152</title>
<polygon fill="none" stroke="#000000" points="934.8691,-405.5 934.8691,-449.5 1269.4316,-449.5 1269.4316,-405.5 934.8691,-405.5"/>
<text text-anchor="middle" x="1011.4917" y="-423.3" font-family="Times,serif" font-size="14.00" fill="#000000">sequential_1: Sequential</text>
<polyline fill="none" stroke="#000000" points="1088.1143,-405.5 1088.1143,-449.5 "/>
<text text-anchor="middle" x="1115.9487" y="-434.3" font-family="Times,serif" font-size="14.00" fill="#000000">input:</text>
<polyline fill="none" stroke="#000000" points="1088.1143,-427.5 1143.7832,-427.5 "/>
<text text-anchor="middle" x="1115.9487" y="-412.3" font-family="Times,serif" font-size="14.00" fill="#000000">output:</text>
<polyline fill="none" stroke="#000000" points="1143.7832,-405.5 1143.7832,-449.5 "/>
<text text-anchor="middle" x="1206.6074" y="-434.3" font-family="Times,serif" font-size="14.00" fill="#000000">(None, 128, 128, 3)</text>
<polyline fill="none" stroke="#000000" points="1143.7832,-427.5 1269.4316,-427.5 "/>
<text text-anchor="middle" x="1206.6074" y="-412.3" font-family="Times,serif" font-size="14.00" fill="#000000">(None, 128)</text>
</g>
<!-- 5037070936&#45;&gt;5034454152 -->
<g id="edge1" class="edge">
<title>5037070936&#45;&gt;5034454152</title>
<path fill="none" stroke="#000000" d="M356.7903,-486.8468C359.5965,-486.5585 362.3847,-486.276 365.1504,-486 556.0157,-466.9503 775.1913,-450.2063 924.5835,-439.5676"/>
<polygon fill="#000000" stroke="#000000" points="925.0427,-443.0439 934.7695,-438.844 924.5466,-436.0615 925.0427,-443.0439"/>
</g>
<!-- 5037378080 -->
<g id="node2" class="node">
<title>5037378080</title>
<polygon fill="none" stroke="#000000" points="1137.7241,-486.5 1137.7241,-530.5 1530.5767,-530.5 1530.5767,-486.5 1137.7241,-486.5"/>
<text text-anchor="middle" x="1243.4917" y="-504.3" font-family="Times,serif" font-size="14.00" fill="#000000">anchor_horizontal_cut: InputLayer</text>
<polyline fill="none" stroke="#000000" points="1349.2593,-486.5 1349.2593,-530.5 "/>
<text text-anchor="middle" x="1377.0938" y="-515.3" font-family="Times,serif" font-size="14.00" fill="#000000">input:</text>
<polyline fill="none" stroke="#000000" points="1349.2593,-508.5 1404.9282,-508.5 "/>
<text text-anchor="middle" x="1377.0938" y="-493.3" font-family="Times,serif" font-size="14.00" fill="#000000">output:</text>
<polyline fill="none" stroke="#000000" points="1404.9282,-486.5 1404.9282,-530.5 "/>
<text text-anchor="middle" x="1467.7524" y="-515.3" font-family="Times,serif" font-size="14.00" fill="#000000">(None, 128, 128, 3)</text>
<polyline fill="none" stroke="#000000" points="1404.9282,-508.5 1530.5767,-508.5 "/>
<text text-anchor="middle" x="1467.7524" y="-493.3" font-family="Times,serif" font-size="14.00" fill="#000000">(None, 128, 128, 3)</text>
</g>
<!-- 5036943904 -->
<g id="node11" class="node">
<title>5036943904</title>
<polygon fill="none" stroke="#000000" points="1580.8691,-405.5 1580.8691,-449.5 1915.4316,-449.5 1915.4316,-405.5 1580.8691,-405.5"/>
<text text-anchor="middle" x="1657.4917" y="-423.3" font-family="Times,serif" font-size="14.00" fill="#000000">sequential_5: Sequential</text>
<polyline fill="none" stroke="#000000" points="1734.1143,-405.5 1734.1143,-449.5 "/>
<text text-anchor="middle" x="1761.9487" y="-434.3" font-family="Times,serif" font-size="14.00" fill="#000000">input:</text>
<polyline fill="none" stroke="#000000" points="1734.1143,-427.5 1789.7832,-427.5 "/>
<text text-anchor="middle" x="1761.9487" y="-412.3" font-family="Times,serif" font-size="14.00" fill="#000000">output:</text>
<polyline fill="none" stroke="#000000" points="1789.7832,-405.5 1789.7832,-449.5 "/>
<text text-anchor="middle" x="1852.6074" y="-434.3" font-family="Times,serif" font-size="14.00" fill="#000000">(None, 128, 128, 3)</text>
<polyline fill="none" stroke="#000000" points="1789.7832,-427.5 1915.4316,-427.5 "/>
<text text-anchor="middle" x="1852.6074" y="-412.3" font-family="Times,serif" font-size="14.00" fill="#000000">(None, 128)</text>
</g>
<!-- 5037378080&#45;&gt;5036943904 -->
<g id="edge4" class="edge">
<title>5037378080&#45;&gt;5036943904</title>
<path fill="none" stroke="#000000" d="M1446.7309,-486.4734C1502.0711,-475.6459 1568.87,-462.5766 1625.5055,-451.4957"/>
<polygon fill="#000000" stroke="#000000" points="1626.4505,-454.8773 1635.5923,-449.5222 1625.1063,-448.0075 1626.4505,-454.8773"/>
</g>
<!-- 5037800528 -->
<g id="node3" class="node">
<title>5037800528</title>
<polygon fill="none" stroke="#000000" points="2386.1172,-486.5 2386.1172,-530.5 2764.1836,-530.5 2764.1836,-486.5 2386.1172,-486.5"/>
<text text-anchor="middle" x="2484.4917" y="-504.3" font-family="Times,serif" font-size="14.00" fill="#000000">anchor_vertical_cut: InputLayer</text>
<polyline fill="none" stroke="#000000" points="2582.8662,-486.5 2582.8662,-530.5 "/>
<text text-anchor="middle" x="2610.7007" y="-515.3" font-family="Times,serif" font-size="14.00" fill="#000000">input:</text>
<polyline fill="none" stroke="#000000" points="2582.8662,-508.5 2638.5352,-508.5 "/>
<text text-anchor="middle" x="2610.7007" y="-493.3" font-family="Times,serif" font-size="14.00" fill="#000000">output:</text>
<polyline fill="none" stroke="#000000" points="2638.5352,-486.5 2638.5352,-530.5 "/>
<text text-anchor="middle" x="2701.3594" y="-515.3" font-family="Times,serif" font-size="14.00" fill="#000000">(None, 128, 128, 3)</text>
<polyline fill="none" stroke="#000000" points="2638.5352,-508.5 2764.1836,-508.5 "/>
<text text-anchor="middle" x="2701.3594" y="-493.3" font-family="Times,serif" font-size="14.00" fill="#000000">(None, 128, 128, 3)</text>
</g>
<!-- 5035728792 -->
<g id="node12" class="node">
<title>5035728792</title>
<polygon fill="none" stroke="#000000" points="2238.8691,-405.5 2238.8691,-449.5 2573.4316,-449.5 2573.4316,-405.5 2238.8691,-405.5"/>
<text text-anchor="middle" x="2315.4917" y="-423.3" font-family="Times,serif" font-size="14.00" fill="#000000">sequential_3: Sequential</text>
<polyline fill="none" stroke="#000000" points="2392.1143,-405.5 2392.1143,-449.5 "/>
<text text-anchor="middle" x="2419.9487" y="-434.3" font-family="Times,serif" font-size="14.00" fill="#000000">input:</text>
<polyline fill="none" stroke="#000000" points="2392.1143,-427.5 2447.7832,-427.5 "/>
<text text-anchor="middle" x="2419.9487" y="-412.3" font-family="Times,serif" font-size="14.00" fill="#000000">output:</text>
<polyline fill="none" stroke="#000000" points="2447.7832,-405.5 2447.7832,-449.5 "/>
<text text-anchor="middle" x="2510.6074" y="-434.3" font-family="Times,serif" font-size="14.00" fill="#000000">(None, 128, 128, 3)</text>
<polyline fill="none" stroke="#000000" points="2447.7832,-427.5 2573.4316,-427.5 "/>
<text text-anchor="middle" x="2510.6074" y="-412.3" font-family="Times,serif" font-size="14.00" fill="#000000">(None, 128)</text>
</g>
<!-- 5037800528&#45;&gt;5035728792 -->
<g id="edge7" class="edge">
<title>5037800528&#45;&gt;5035728792</title>
<path fill="none" stroke="#000000" d="M2528.9704,-486.3664C2508.105,-476.3658 2483.2848,-464.4698 2461.4361,-453.9979"/>
<polygon fill="#000000" stroke="#000000" points="2462.805,-450.7728 2452.2745,-449.6068 2459.7795,-457.0852 2462.805,-450.7728"/>
</g>
<!-- 5037149992 -->
<g id="node4" class="node">
<title>5037149992</title>
<polygon fill="none" stroke="#000000" points="373.8794,-486.5 373.8794,-530.5 736.4214,-530.5 736.4214,-486.5 373.8794,-486.5"/>
<text text-anchor="middle" x="464.4917" y="-504.3" font-family="Times,serif" font-size="14.00" fill="#000000">positive_element: InputLayer</text>
<polyline fill="none" stroke="#000000" points="555.104,-486.5 555.104,-530.5 "/>
<text text-anchor="middle" x="582.9385" y="-515.3" font-family="Times,serif" font-size="14.00" fill="#000000">input:</text>
<polyline fill="none" stroke="#000000" points="555.104,-508.5 610.7729,-508.5 "/>
<text text-anchor="middle" x="582.9385" y="-493.3" font-family="Times,serif" font-size="14.00" fill="#000000">output:</text>
<polyline fill="none" stroke="#000000" points="610.7729,-486.5 610.7729,-530.5 "/>
<text text-anchor="middle" x="673.5972" y="-515.3" font-family="Times,serif" font-size="14.00" fill="#000000">(None, 128, 128, 3)</text>
<polyline fill="none" stroke="#000000" points="610.7729,-508.5 736.4214,-508.5 "/>
<text text-anchor="middle" x="673.5972" y="-493.3" font-family="Times,serif" font-size="14.00" fill="#000000">(None, 128, 128, 3)</text>
</g>
<!-- 5037149992&#45;&gt;5034454152 -->
<g id="edge2" class="edge">
<title>5037149992&#45;&gt;5034454152</title>
<path fill="none" stroke="#000000" d="M703.898,-486.4734C778.0763,-475.489 867.8364,-462.1973 943.35,-451.0152"/>
<polygon fill="#000000" stroke="#000000" points="944.053,-454.4494 953.4324,-449.5222 943.0275,-447.5249 944.053,-454.4494"/>
</g>
<!-- 5037799240 -->
<g id="node5" class="node">
<title>5037799240</title>
<polygon fill="none" stroke="#000000" points="1548.6035,-486.5 1548.6035,-530.5 1947.6973,-530.5 1947.6973,-486.5 1548.6035,-486.5"/>
<text text-anchor="middle" x="1657.4917" y="-504.3" font-family="Times,serif" font-size="14.00" fill="#000000">positive_horizontal_cut: InputLayer</text>
<polyline fill="none" stroke="#000000" points="1766.3799,-486.5 1766.3799,-530.5 "/>
<text text-anchor="middle" x="1794.2144" y="-515.3" font-family="Times,serif" font-size="14.00" fill="#000000">input:</text>
<polyline fill="none" stroke="#000000" points="1766.3799,-508.5 1822.0488,-508.5 "/>
<text text-anchor="middle" x="1794.2144" y="-493.3" font-family="Times,serif" font-size="14.00" fill="#000000">output:</text>
<polyline fill="none" stroke="#000000" points="1822.0488,-486.5 1822.0488,-530.5 "/>
<text text-anchor="middle" x="1884.873" y="-515.3" font-family="Times,serif" font-size="14.00" fill="#000000">(None, 128, 128, 3)</text>
<polyline fill="none" stroke="#000000" points="1822.0488,-508.5 1947.6973,-508.5 "/>
<text text-anchor="middle" x="1884.873" y="-493.3" font-family="Times,serif" font-size="14.00" fill="#000000">(None, 128, 128, 3)</text>
</g>
<!-- 5037799240&#45;&gt;5036943904 -->
<g id="edge5" class="edge">
<title>5037799240&#45;&gt;5036943904</title>
<path fill="none" stroke="#000000" d="M1748.1504,-486.3664C1748.1504,-478.1516 1748.1504,-468.6579 1748.1504,-459.7252"/>
<polygon fill="#000000" stroke="#000000" points="1751.6505,-459.6068 1748.1504,-449.6068 1744.6505,-459.6069 1751.6505,-459.6068"/>
</g>
<!-- 5037801088 -->
<g id="node6" class="node">
<title>5037801088</title>
<polygon fill="none" stroke="#000000" points="2781.9966,-486.5 2781.9966,-530.5 3166.3042,-530.5 3166.3042,-486.5 2781.9966,-486.5"/>
<text text-anchor="middle" x="2883.4917" y="-504.3" font-family="Times,serif" font-size="14.00" fill="#000000">positive_vertical_cut: InputLayer</text>
<polyline fill="none" stroke="#000000" points="2984.9868,-486.5 2984.9868,-530.5 "/>
<text text-anchor="middle" x="3012.8213" y="-515.3" font-family="Times,serif" font-size="14.00" fill="#000000">input:</text>
<polyline fill="none" stroke="#000000" points="2984.9868,-508.5 3040.6558,-508.5 "/>
<text text-anchor="middle" x="3012.8213" y="-493.3" font-family="Times,serif" font-size="14.00" fill="#000000">output:</text>
<polyline fill="none" stroke="#000000" points="3040.6558,-486.5 3040.6558,-530.5 "/>
<text text-anchor="middle" x="3103.48" y="-515.3" font-family="Times,serif" font-size="14.00" fill="#000000">(None, 128, 128, 3)</text>
<polyline fill="none" stroke="#000000" points="3040.6558,-508.5 3166.3042,-508.5 "/>
<text text-anchor="middle" x="3103.48" y="-493.3" font-family="Times,serif" font-size="14.00" fill="#000000">(None, 128, 128, 3)</text>
</g>
<!-- 5037801088&#45;&gt;5035728792 -->
<g id="edge8" class="edge">
<title>5037801088&#45;&gt;5035728792</title>
<path fill="none" stroke="#000000" d="M2819.6922,-486.4734C2742.5089,-475.4666 2649.0794,-462.1431 2570.5674,-450.9468"/>
<polygon fill="#000000" stroke="#000000" points="2570.9719,-447.4691 2560.5779,-449.5222 2569.9836,-454.399 2570.9719,-447.4691"/>
</g>
<!-- 5037625184 -->
<g id="node7" class="node">
<title>5037625184</title>
<polygon fill="none" stroke="#000000" points="754.3345,-486.5 754.3345,-530.5 1119.9663,-530.5 1119.9663,-486.5 754.3345,-486.5"/>
<text text-anchor="middle" x="846.4917" y="-504.3" font-family="Times,serif" font-size="14.00" fill="#000000">negative_element: InputLayer</text>
<polyline fill="none" stroke="#000000" points="938.6489,-486.5 938.6489,-530.5 "/>
<text text-anchor="middle" x="966.4834" y="-515.3" font-family="Times,serif" font-size="14.00" fill="#000000">input:</text>
<polyline fill="none" stroke="#000000" points="938.6489,-508.5 994.3179,-508.5 "/>
<text text-anchor="middle" x="966.4834" y="-493.3" font-family="Times,serif" font-size="14.00" fill="#000000">output:</text>
<polyline fill="none" stroke="#000000" points="994.3179,-486.5 994.3179,-530.5 "/>
<text text-anchor="middle" x="1057.1421" y="-515.3" font-family="Times,serif" font-size="14.00" fill="#000000">(None, 128, 128, 3)</text>
<polyline fill="none" stroke="#000000" points="994.3179,-508.5 1119.9663,-508.5 "/>
<text text-anchor="middle" x="1057.1421" y="-493.3" font-family="Times,serif" font-size="14.00" fill="#000000">(None, 128, 128, 3)</text>
</g>
<!-- 5037625184&#45;&gt;5034454152 -->
<g id="edge3" class="edge">
<title>5037625184&#45;&gt;5034454152</title>
<path fill="none" stroke="#000000" d="M982.2374,-486.3664C1002.5179,-476.4105 1026.6254,-464.5759 1047.8873,-454.1382"/>
<polygon fill="#000000" stroke="#000000" points="1049.6836,-457.1555 1057.1179,-449.6068 1046.5989,-450.8718 1049.6836,-457.1555"/>
</g>
<!-- 5037799856 -->
<g id="node8" class="node">
<title>5037799856</title>
<polygon fill="none" stroke="#000000" points="1966.0586,-486.5 1966.0586,-530.5 2368.2422,-530.5 2368.2422,-486.5 1966.0586,-486.5"/>
<text text-anchor="middle" x="2076.4917" y="-504.3" font-family="Times,serif" font-size="14.00" fill="#000000">negative_horizontal_cut: InputLayer</text>
<polyline fill="none" stroke="#000000" points="2186.9248,-486.5 2186.9248,-530.5 "/>
<text text-anchor="middle" x="2214.7593" y="-515.3" font-family="Times,serif" font-size="14.00" fill="#000000">input:</text>
<polyline fill="none" stroke="#000000" points="2186.9248,-508.5 2242.5938,-508.5 "/>
<text text-anchor="middle" x="2214.7593" y="-493.3" font-family="Times,serif" font-size="14.00" fill="#000000">output:</text>
<polyline fill="none" stroke="#000000" points="2242.5938,-486.5 2242.5938,-530.5 "/>
<text text-anchor="middle" x="2305.418" y="-515.3" font-family="Times,serif" font-size="14.00" fill="#000000">(None, 128, 128, 3)</text>
<polyline fill="none" stroke="#000000" points="2242.5938,-508.5 2368.2422,-508.5 "/>
<text text-anchor="middle" x="2305.418" y="-493.3" font-family="Times,serif" font-size="14.00" fill="#000000">(None, 128, 128, 3)</text>
</g>
<!-- 5037799856&#45;&gt;5036943904 -->
<g id="edge6" class="edge">
<title>5037799856&#45;&gt;5036943904</title>
<path fill="none" stroke="#000000" d="M2053.2103,-486.4734C1997.0857,-475.6235 1929.316,-462.5225 1871.9206,-451.4269"/>
<polygon fill="#000000" stroke="#000000" points="1872.5504,-447.984 1862.0678,-449.5222 1871.2217,-454.8567 1872.5504,-447.984"/>
</g>
<!-- 5037846992 -->
<g id="node9" class="node">
<title>5037846992</title>
<polygon fill="none" stroke="#000000" points="3184.4517,-486.5 3184.4517,-530.5 3571.8491,-530.5 3571.8491,-486.5 3184.4517,-486.5"/>
<text text-anchor="middle" x="3287.4917" y="-504.3" font-family="Times,serif" font-size="14.00" fill="#000000">negative_vertical_cut: InputLayer</text>
<polyline fill="none" stroke="#000000" points="3390.5317,-486.5 3390.5317,-530.5 "/>
<text text-anchor="middle" x="3418.3662" y="-515.3" font-family="Times,serif" font-size="14.00" fill="#000000">input:</text>
<polyline fill="none" stroke="#000000" points="3390.5317,-508.5 3446.2007,-508.5 "/>
<text text-anchor="middle" x="3418.3662" y="-493.3" font-family="Times,serif" font-size="14.00" fill="#000000">output:</text>
<polyline fill="none" stroke="#000000" points="3446.2007,-486.5 3446.2007,-530.5 "/>
<text text-anchor="middle" x="3509.0249" y="-515.3" font-family="Times,serif" font-size="14.00" fill="#000000">(None, 128, 128, 3)</text>
<polyline fill="none" stroke="#000000" points="3446.2007,-508.5 3571.8491,-508.5 "/>
<text text-anchor="middle" x="3509.0249" y="-493.3" font-family="Times,serif" font-size="14.00" fill="#000000">(None, 128, 128, 3)</text>
</g>
<!-- 5037846992&#45;&gt;5035728792 -->
<g id="edge9" class="edge">
<title>5037846992&#45;&gt;5035728792</title>
<path fill="none" stroke="#000000" d="M3184.2218,-486.8589C3181.1768,-486.5669 3178.1513,-486.2804 3175.1504,-486 2972.6298,-467.0791 2739.6694,-450.0138 2583.7123,-439.2646"/>
<polygon fill="#000000" stroke="#000000" points="2583.7688,-435.7603 2573.5522,-438.5658 2583.2884,-442.7438 2583.7688,-435.7603"/>
</g>
<!-- 5041383968 -->
<g id="node13" class="node">
<title>5041383968</title>
<polygon fill="none" stroke="#000000" points="1037.8618,-324.5 1037.8618,-368.5 1494.439,-368.5 1494.439,-324.5 1037.8618,-324.5"/>
<text text-anchor="middle" x="1117.1812" y="-342.3" font-family="Times,serif" font-size="14.00" fill="#000000">concatenate: Concatenate</text>
<polyline fill="none" stroke="#000000" points="1196.5005,-324.5 1196.5005,-368.5 "/>
<text text-anchor="middle" x="1224.335" y="-353.3" font-family="Times,serif" font-size="14.00" fill="#000000">input:</text>
<polyline fill="none" stroke="#000000" points="1196.5005,-346.5 1252.1694,-346.5 "/>
<text text-anchor="middle" x="1224.335" y="-331.3" font-family="Times,serif" font-size="14.00" fill="#000000">output:</text>
<polyline fill="none" stroke="#000000" points="1252.1694,-324.5 1252.1694,-368.5 "/>
<text text-anchor="middle" x="1373.3042" y="-353.3" font-family="Times,serif" font-size="14.00" fill="#000000">[(None, 128), (None, 128), (None, 128)]</text>
<polyline fill="none" stroke="#000000" points="1252.1694,-346.5 1494.439,-346.5 "/>
<text text-anchor="middle" x="1372.9937" y="-331.3" font-family="Times,serif" font-size="14.00" fill="#000000">(None, 384)</text>
</g>
<!-- 5034454152&#45;&gt;5041383968 -->
<g id="edge10" class="edge">
<title>5034454152&#45;&gt;5041383968</title>
<path fill="none" stroke="#000000" d="M1146.9641,-405.3664C1167.1218,-395.4105 1191.0831,-383.5759 1212.2162,-373.1382"/>
<polygon fill="#000000" stroke="#000000" points="1213.9748,-376.1734 1221.3909,-368.6068 1210.8749,-369.8971 1213.9748,-376.1734"/>
</g>
<!-- 5041685000 -->
<g id="node14" class="node">
<title>5041685000</title>
<polygon fill="none" stroke="#000000" points="1512.8618,-324.5 1512.8618,-368.5 1983.439,-368.5 1983.439,-324.5 1512.8618,-324.5"/>
<text text-anchor="middle" x="1599.1812" y="-342.3" font-family="Times,serif" font-size="14.00" fill="#000000">concatenate_1: Concatenate</text>
<polyline fill="none" stroke="#000000" points="1685.5005,-324.5 1685.5005,-368.5 "/>
<text text-anchor="middle" x="1713.335" y="-353.3" font-family="Times,serif" font-size="14.00" fill="#000000">input:</text>
<polyline fill="none" stroke="#000000" points="1685.5005,-346.5 1741.1694,-346.5 "/>
<text text-anchor="middle" x="1713.335" y="-331.3" font-family="Times,serif" font-size="14.00" fill="#000000">output:</text>
<polyline fill="none" stroke="#000000" points="1741.1694,-324.5 1741.1694,-368.5 "/>
<text text-anchor="middle" x="1862.3042" y="-353.3" font-family="Times,serif" font-size="14.00" fill="#000000">[(None, 128), (None, 128), (None, 128)]</text>
<polyline fill="none" stroke="#000000" points="1741.1694,-346.5 1983.439,-346.5 "/>
<text text-anchor="middle" x="1861.9937" y="-331.3" font-family="Times,serif" font-size="14.00" fill="#000000">(None, 384)</text>
</g>
<!-- 5034454152&#45;&gt;5041685000 -->
<g id="edge13" class="edge">
<title>5034454152&#45;&gt;5041685000</title>
<path fill="none" stroke="#000000" d="M1269.7721,-406.4824C1359.4961,-395.2322 1470.2189,-381.349 1562.5381,-369.7734"/>
<polygon fill="#000000" stroke="#000000" points="1563.0676,-373.2345 1572.5544,-368.5175 1562.1966,-366.2889 1563.0676,-373.2345"/>
</g>
<!-- 5041688024 -->
<g id="node15" class="node">
<title>5041688024</title>
<polygon fill="none" stroke="#000000" points="2001.8618,-324.5 2001.8618,-368.5 2472.439,-368.5 2472.439,-324.5 2001.8618,-324.5"/>
<text text-anchor="middle" x="2088.1812" y="-342.3" font-family="Times,serif" font-size="14.00" fill="#000000">concatenate_2: Concatenate</text>
<polyline fill="none" stroke="#000000" points="2174.5005,-324.5 2174.5005,-368.5 "/>
<text text-anchor="middle" x="2202.335" y="-353.3" font-family="Times,serif" font-size="14.00" fill="#000000">input:</text>
<polyline fill="none" stroke="#000000" points="2174.5005,-346.5 2230.1694,-346.5 "/>
<text text-anchor="middle" x="2202.335" y="-331.3" font-family="Times,serif" font-size="14.00" fill="#000000">output:</text>
<polyline fill="none" stroke="#000000" points="2230.1694,-324.5 2230.1694,-368.5 "/>
<text text-anchor="middle" x="2351.3042" y="-353.3" font-family="Times,serif" font-size="14.00" fill="#000000">[(None, 128), (None, 128), (None, 128)]</text>
<polyline fill="none" stroke="#000000" points="2230.1694,-346.5 2472.439,-346.5 "/>
<text text-anchor="middle" x="2350.9937" y="-331.3" font-family="Times,serif" font-size="14.00" fill="#000000">(None, 384)</text>
</g>
<!-- 5034454152&#45;&gt;5041688024 -->
<g id="edge16" class="edge">
<title>5034454152&#45;&gt;5041688024</title>
<path fill="none" stroke="#000000" d="M1269.5577,-417.7953C1446.1566,-407.258 1732.8488,-389.3014 1991.4476,-369.0452"/>
<polygon fill="#000000" stroke="#000000" points="1992.1016,-372.5047 2001.7967,-368.2321 1991.5532,-365.5262 1992.1016,-372.5047"/>
</g>
<!-- 5036943904&#45;&gt;5041383968 -->
<g id="edge11" class="edge">
<title>5036943904&#45;&gt;5041383968</title>
<path fill="none" stroke="#000000" d="M1617.0784,-405.4734C1552.1149,-394.5563 1473.5888,-381.36 1407.3041,-370.2208"/>
<polygon fill="#000000" stroke="#000000" points="1407.638,-366.728 1397.1962,-368.5222 1406.4779,-373.6312 1407.638,-366.728"/>
</g>
<!-- 5036943904&#45;&gt;5041685000 -->
<g id="edge14" class="edge">
<title>5036943904&#45;&gt;5041685000</title>
<path fill="none" stroke="#000000" d="M1748.1504,-405.3664C1748.1504,-397.1516 1748.1504,-387.6579 1748.1504,-378.7252"/>
<polygon fill="#000000" stroke="#000000" points="1751.6505,-378.6068 1748.1504,-368.6068 1744.6505,-378.6069 1751.6505,-378.6068"/>
</g>
<!-- 5036943904&#45;&gt;5041688024 -->
<g id="edge17" class="edge">
<title>5036943904&#45;&gt;5041688024</title>
<path fill="none" stroke="#000000" d="M1881.1259,-405.4734C1947.0328,-394.5563 2026.6994,-381.36 2093.9467,-370.2208"/>
<polygon fill="#000000" stroke="#000000" points="2094.9078,-373.6094 2104.2014,-368.5222 2093.7638,-366.7035 2094.9078,-373.6094"/>
</g>
<!-- 5035728792&#45;&gt;5041383968 -->
<g id="edge12" class="edge">
<title>5035728792&#45;&gt;5041383968</title>
<path fill="none" stroke="#000000" d="M2238.5543,-418.1125C2059.6615,-407.7504 1767.6384,-389.8561 1504.5961,-369.0237"/>
<polygon fill="#000000" stroke="#000000" points="1504.7095,-365.5218 1494.4637,-368.2186 1504.155,-372.4998 1504.7095,-365.5218"/>
</g>
<!-- 5035728792&#45;&gt;5041685000 -->
<g id="edge15" class="edge">
<title>5035728792&#45;&gt;5041685000</title>
<path fill="none" stroke="#000000" d="M2238.8328,-406.9032C2146.8066,-395.5747 2032.3192,-381.4813 1937.0843,-369.7578"/>
<polygon fill="#000000" stroke="#000000" points="1937.4004,-366.2704 1927.0476,-368.5223 1936.5451,-373.218 1937.4004,-366.2704"/>
</g>
<!-- 5035728792&#45;&gt;5041688024 -->
<g id="edge18" class="edge">
<title>5035728792&#45;&gt;5041688024</title>
<path fill="none" stroke="#000000" d="M2359.9704,-405.3664C2339.105,-395.3658 2314.2848,-383.4698 2292.4361,-372.9979"/>
<polygon fill="#000000" stroke="#000000" points="2293.805,-369.7728 2283.2745,-368.6068 2290.7795,-376.0852 2293.805,-369.7728"/>
</g>
<!-- 5040532728 -->
<g id="node16" class="node">
<title>5040532728</title>
<polygon fill="none" stroke="#000000" points="1601.8691,-243.5 1601.8691,-287.5 1894.4316,-287.5 1894.4316,-243.5 1601.8691,-243.5"/>
<text text-anchor="middle" x="1678.4917" y="-261.3" font-family="Times,serif" font-size="14.00" fill="#000000">sequential_6: Sequential</text>
<polyline fill="none" stroke="#000000" points="1755.1143,-243.5 1755.1143,-287.5 "/>
<text text-anchor="middle" x="1782.9487" y="-272.3" font-family="Times,serif" font-size="14.00" fill="#000000">input:</text>
<polyline fill="none" stroke="#000000" points="1755.1143,-265.5 1810.7832,-265.5 "/>
<text text-anchor="middle" x="1782.9487" y="-250.3" font-family="Times,serif" font-size="14.00" fill="#000000">output:</text>
<polyline fill="none" stroke="#000000" points="1810.7832,-243.5 1810.7832,-287.5 "/>
<text text-anchor="middle" x="1852.6074" y="-272.3" font-family="Times,serif" font-size="14.00" fill="#000000">(None, 384)</text>
<polyline fill="none" stroke="#000000" points="1810.7832,-265.5 1894.4316,-265.5 "/>
<text text-anchor="middle" x="1852.6074" y="-250.3" font-family="Times,serif" font-size="14.00" fill="#000000">(None, 128)</text>
</g>
<!-- 5041383968&#45;&gt;5040532728 -->
<g id="edge19" class="edge">
<title>5041383968&#45;&gt;5040532728</title>
<path fill="none" stroke="#000000" d="M1397.2223,-324.4734C1462.1859,-313.5563 1540.712,-300.36 1606.9967,-289.2208"/>
<polygon fill="#000000" stroke="#000000" points="1607.8229,-292.6312 1617.1045,-287.5222 1606.6628,-285.728 1607.8229,-292.6312"/>
</g>
<!-- 5041685000&#45;&gt;5040532728 -->
<g id="edge20" class="edge">
<title>5041685000&#45;&gt;5040532728</title>
<path fill="none" stroke="#000000" d="M1748.1504,-324.3664C1748.1504,-316.1516 1748.1504,-306.6579 1748.1504,-297.7252"/>
<polygon fill="#000000" stroke="#000000" points="1751.6505,-297.6068 1748.1504,-287.6068 1744.6505,-297.6069 1751.6505,-297.6068"/>
</g>
<!-- 5041688024&#45;&gt;5040532728 -->
<g id="edge21" class="edge">
<title>5041688024&#45;&gt;5040532728</title>
<path fill="none" stroke="#000000" d="M2104.1749,-324.4734C2038.2679,-313.5563 1958.6014,-300.36 1891.354,-289.2208"/>
<polygon fill="#000000" stroke="#000000" points="1891.537,-285.7035 1881.0994,-287.5222 1890.393,-292.6094 1891.537,-285.7035"/>
</g>
<!-- 5041774776 -->
<g id="node17" class="node">
<title>5041774776</title>
<polygon fill="none" stroke="#000000" points="1615.876,-162.5 1615.876,-206.5 1880.4248,-206.5 1880.4248,-162.5 1615.876,-162.5"/>
<text text-anchor="middle" x="1678.4917" y="-180.3" font-family="Times,serif" font-size="14.00" fill="#000000">normalize: Lambda</text>
<polyline fill="none" stroke="#000000" points="1741.1074,-162.5 1741.1074,-206.5 "/>
<text text-anchor="middle" x="1768.9419" y="-191.3" font-family="Times,serif" font-size="14.00" fill="#000000">input:</text>
<polyline fill="none" stroke="#000000" points="1741.1074,-184.5 1796.7764,-184.5 "/>
<text text-anchor="middle" x="1768.9419" y="-169.3" font-family="Times,serif" font-size="14.00" fill="#000000">output:</text>
<polyline fill="none" stroke="#000000" points="1796.7764,-162.5 1796.7764,-206.5 "/>
<text text-anchor="middle" x="1838.6006" y="-191.3" font-family="Times,serif" font-size="14.00" fill="#000000">(None, 128)</text>
<polyline fill="none" stroke="#000000" points="1796.7764,-184.5 1880.4248,-184.5 "/>
<text text-anchor="middle" x="1838.6006" y="-169.3" font-family="Times,serif" font-size="14.00" fill="#000000">(None, 128)</text>
</g>
<!-- 5040532728&#45;&gt;5041774776 -->
<g id="edge22" class="edge">
<title>5040532728&#45;&gt;5041774776</title>
<path fill="none" stroke="#000000" d="M1748.1504,-243.3664C1748.1504,-235.1516 1748.1504,-225.6579 1748.1504,-216.7252"/>
<polygon fill="#000000" stroke="#000000" points="1751.6505,-216.6068 1748.1504,-206.6068 1744.6505,-216.6069 1751.6505,-216.6068"/>
</g>
<!-- 5041775672 -->
<g id="node18" class="node">
<title>5041775672</title>
<polygon fill="none" stroke="#000000" points="1399.5381,-81.5 1399.5381,-125.5 1738.7627,-125.5 1738.7627,-81.5 1399.5381,-81.5"/>
<text text-anchor="middle" x="1457.5054" y="-99.3" font-family="Times,serif" font-size="14.00" fill="#000000">pos_dist: Lambda</text>
<polyline fill="none" stroke="#000000" points="1515.4727,-81.5 1515.4727,-125.5 "/>
<text text-anchor="middle" x="1543.3071" y="-110.3" font-family="Times,serif" font-size="14.00" fill="#000000">input:</text>
<polyline fill="none" stroke="#000000" points="1515.4727,-103.5 1571.1416,-103.5 "/>
<text text-anchor="middle" x="1543.3071" y="-88.3" font-family="Times,serif" font-size="14.00" fill="#000000">output:</text>
<polyline fill="none" stroke="#000000" points="1571.1416,-81.5 1571.1416,-125.5 "/>
<text text-anchor="middle" x="1654.9521" y="-110.3" font-family="Times,serif" font-size="14.00" fill="#000000">[(None, 128), (None, 128)]</text>
<polyline fill="none" stroke="#000000" points="1571.1416,-103.5 1738.7627,-103.5 "/>
<text text-anchor="middle" x="1654.4658" y="-88.3" font-family="Times,serif" font-size="14.00" fill="#000000">(None, 1)</text>
</g>
<!-- 5041774776&#45;&gt;5041775672 -->
<g id="edge25" class="edge">
<title>5041774776&#45;&gt;5041775672</title>
<path fill="none" stroke="#000000" d="M1699.2379,-162.3664C1677.0392,-152.3212 1650.6142,-140.3635 1627.3977,-129.8577"/>
<polygon fill="#000000" stroke="#000000" points="1628.5574,-126.5409 1618.0038,-125.6068 1625.6715,-132.9183 1628.5574,-126.5409"/>
</g>
<!-- 5041915944 -->
<g id="node19" class="node">
<title>5041915944</title>
<polygon fill="none" stroke="#000000" points="1757.1553,-81.5 1757.1553,-125.5 2097.1455,-125.5 2097.1455,-81.5 1757.1553,-81.5"/>
<text text-anchor="middle" x="1815.5054" y="-99.3" font-family="Times,serif" font-size="14.00" fill="#000000">neg_dist: Lambda</text>
<polyline fill="none" stroke="#000000" points="1873.8555,-81.5 1873.8555,-125.5 "/>
<text text-anchor="middle" x="1901.6899" y="-110.3" font-family="Times,serif" font-size="14.00" fill="#000000">input:</text>
<polyline fill="none" stroke="#000000" points="1873.8555,-103.5 1929.5244,-103.5 "/>
<text text-anchor="middle" x="1901.6899" y="-88.3" font-family="Times,serif" font-size="14.00" fill="#000000">output:</text>
<polyline fill="none" stroke="#000000" points="1929.5244,-81.5 1929.5244,-125.5 "/>
<text text-anchor="middle" x="2013.335" y="-110.3" font-family="Times,serif" font-size="14.00" fill="#000000">[(None, 128), (None, 128)]</text>
<polyline fill="none" stroke="#000000" points="1929.5244,-103.5 2097.1455,-103.5 "/>
<text text-anchor="middle" x="2012.8486" y="-88.3" font-family="Times,serif" font-size="14.00" fill="#000000">(None, 1)</text>
</g>
<!-- 5041774776&#45;&gt;5041915944 -->
<g id="edge27" class="edge">
<title>5041774776&#45;&gt;5041915944</title>
<path fill="none" stroke="#000000" d="M1797.0629,-162.3664C1819.2616,-152.3212 1845.6866,-140.3635 1868.903,-129.8577"/>
<polygon fill="#000000" stroke="#000000" points="1870.6293,-132.9183 1878.297,-125.6068 1867.7434,-126.5409 1870.6293,-132.9183"/>
</g>
<!-- 5041991128 -->
<g id="node20" class="node">
<title>5041991128</title>
<polygon fill="none" stroke="#000000" points="1592.5415,-.5 1592.5415,-44.5 1903.7593,-44.5 1903.7593,-.5 1592.5415,-.5"/>
<text text-anchor="middle" x="1650.5054" y="-18.3" font-family="Times,serif" font-size="14.00" fill="#000000">all_dists: Lambda</text>
<polyline fill="none" stroke="#000000" points="1708.4692,-.5 1708.4692,-44.5 "/>
<text text-anchor="middle" x="1736.3037" y="-29.3" font-family="Times,serif" font-size="14.00" fill="#000000">input:</text>
<polyline fill="none" stroke="#000000" points="1708.4692,-22.5 1764.1382,-22.5 "/>
<text text-anchor="middle" x="1736.3037" y="-7.3" font-family="Times,serif" font-size="14.00" fill="#000000">output:</text>
<polyline fill="none" stroke="#000000" points="1764.1382,-.5 1764.1382,-44.5 "/>
<text text-anchor="middle" x="1833.9487" y="-29.3" font-family="Times,serif" font-size="14.00" fill="#000000">[(None, 1), (None, 1)]</text>
<polyline fill="none" stroke="#000000" points="1764.1382,-22.5 1903.7593,-22.5 "/>
<text text-anchor="middle" x="1833.4624" y="-7.3" font-family="Times,serif" font-size="14.00" fill="#000000">(None, 2, 1)</text>
</g>
<!-- 5041775672&#45;&gt;5041991128 -->
<g id="edge29" class="edge">
<title>5041775672&#45;&gt;5041991128</title>
<path fill="none" stroke="#000000" d="M1618.0629,-81.3664C1640.2616,-71.3212 1666.6866,-59.3635 1689.903,-48.8577"/>
<polygon fill="#000000" stroke="#000000" points="1691.6293,-51.9183 1699.297,-44.6068 1688.7434,-45.5409 1691.6293,-51.9183"/>
</g>
<!-- 5041915944&#45;&gt;5041991128 -->
<g id="edge30" class="edge">
<title>5041915944&#45;&gt;5041991128</title>
<path fill="none" stroke="#000000" d="M1878.2379,-81.3664C1856.0392,-71.3212 1829.6142,-59.3635 1806.3977,-48.8577"/>
<polygon fill="#000000" stroke="#000000" points="1807.5574,-45.5409 1797.0038,-44.6068 1804.6715,-51.9183 1807.5574,-45.5409"/>
</g>
</g>
</svg>
